{
	"asset":{
		"generator":"Khronos glTF Blender I/O v5.0.21",
		"version":"2.0"
	},
	"scene":0,
	"scenes":[
		{
			"name":"Scene",
			"nodes":[
				12
			]
		}
	],
	"nodes":[
		{
			"name":"foot.R.002",
			"rotation":[
				0.33498191833496094,
				-0.6227254867553711,
				0.33498212695121765,
				0.6227255463600159
			],
			"scale":[
				0.9999999403953552,
				0.9999999403953552,
				1
			],
			"translation":[
				-0.37676483392715454,
				0.6702306270599365,
				0.2895507514476776
			]
		},
		{
			"name":"foot.R.001",
			"rotation":[
				0.6227254271507263,
				-0.33498185873031616,
				0.6227256655693054,
				0.33498191833496094
			],
			"scale":[
				1.0000001192092896,
				1.0000001192092896,
				1
			],
			"translation":[
				-0.37394285202026367,
				0.13406819105148315,
				0.28955078125
			]
		},
		{
			"name":"foot.L.002",
			"rotation":[
				0.3349819779396057,
				-0.6227256655693054,
				0.3349819481372833,
				0.6227254271507263
			],
			"scale":[
				0.9999999403953552,
				0.9999998211860657,
				0.9999999403953552
			],
			"translation":[
				-0.37676477432250977,
				0.6702306866645813,
				-0.28955093026161194
			]
		},
		{
			"name":"foot.L.001",
			"rotation":[
				0.6227256059646606,
				-0.3349819481372833,
				0.6227254867553711,
				0.3349819481372833
			],
			"scale":[
				0.9999998807907104,
				0.9999997615814209,
				0.9999999403953552
			],
			"translation":[
				-0.3739428222179413,
				0.13406813144683838,
				-0.28955090045928955
			]
		},
		{
			"name":"body.004",
			"rotation":[
				0.29335543513298035,
				0,
				1.1423681200994906e-07,
				0.9560034275054932
			],
			"scale":[
				1,
				1.0000001192092896,
				1
			],
			"translation":[
				-1.7763568394002505e-14,
				0.9561700224876404,
				2.9802315282267955e-08
			]
		},
		{
			"children":[
				4
			],
			"name":"body.003",
			"rotation":[
				0.14248625934123993,
				2.5125355355287704e-14,
				5.548622539208736e-08,
				0.9897968173027039
			],
			"translation":[
				-1.9539925233402755e-14,
				0.6987983584403992,
				-7.450581307466564e-08
			]
		},
		{
			"children":[
				5
			],
			"name":"body.002",
			"rotation":[
				0.30377450585365295,
				-1.0988485144025617e-07,
				1.4009184212682158e-07,
				0.9527439475059509
			],
			"translation":[
				8.881784197001252e-14,
				0.8798692226409912,
				-1.3322676295501878e-14
			]
		},
		{
			"children":[
				6
			],
			"name":"body.001",
			"rotation":[
				0.127262145280838,
				0.6955606341362,
				-0.12726211547851562,
				0.6955602765083313
			],
			"scale":[
				1,
				0.9999999403953552,
				1
			],
			"translation":[
				0.07336955517530441,
				1.1100549697875977,
				-7.085980513465984e-08
			]
		},
		{
			"name":"\u5927\u7832",
			"rotation":[
				-0.656527578830719,
				-0.2626245319843292,
				-0.2626244127750397,
				0.6565274596214294
			],
			"translation":[
				-0.016960304230451584,
				0.10913261771202087,
				-0.7389398217201233
			]
		},
		{
			"name":"body.005",
			"rotation":[
				0.9695202708244324,
				4.2379081577337274e-08,
				8.390652084244721e-08,
				0.24501103162765503
			],
			"scale":[
				1,
				1,
				1.0000001192092896
			],
			"translation":[
				-2.97297351181669e-08,
				0.16258922219276428,
				0.617838442325592
			]
		},
		{
			"children":[
				0,
				1,
				2,
				3,
				7,
				8,
				9
			],
			"name":"body",
			"rotation":[
				0.5,
				0.5000000596046448,
				0.5,
				0.5
			],
			"translation":[
				-2.0645034126687278e-08,
				-1.2971882820129395,
				-0.35608309507369995
			]
		},
		{
			"mesh":0,
			"name":"\u7acb\u65b9\u4f53.004",
			"skin":0
		},
		{
			"children":[
				11,
				10
			],
			"name":"\u30a2\u30fc\u30de\u30c1\u30e5\u30a2"
		}
	],
	"animations":[
		{
			"channels":[
				{
					"sampler":0,
					"target":{
						"node":10,
						"path":"translation"
					}
				},
				{
					"sampler":1,
					"target":{
						"node":10,
						"path":"rotation"
					}
				},
				{
					"sampler":2,
					"target":{
						"node":10,
						"path":"scale"
					}
				},
				{
					"sampler":3,
					"target":{
						"node":0,
						"path":"translation"
					}
				},
				{
					"sampler":4,
					"target":{
						"node":0,
						"path":"rotation"
					}
				},
				{
					"sampler":5,
					"target":{
						"node":0,
						"path":"scale"
					}
				},
				{
					"sampler":6,
					"target":{
						"node":1,
						"path":"translation"
					}
				},
				{
					"sampler":7,
					"target":{
						"node":1,
						"path":"rotation"
					}
				},
				{
					"sampler":8,
					"target":{
						"node":1,
						"path":"scale"
					}
				},
				{
					"sampler":9,
					"target":{
						"node":2,
						"path":"translation"
					}
				},
				{
					"sampler":10,
					"target":{
						"node":2,
						"path":"rotation"
					}
				},
				{
					"sampler":11,
					"target":{
						"node":2,
						"path":"scale"
					}
				},
				{
					"sampler":12,
					"target":{
						"node":3,
						"path":"translation"
					}
				},
				{
					"sampler":13,
					"target":{
						"node":3,
						"path":"rotation"
					}
				},
				{
					"sampler":14,
					"target":{
						"node":3,
						"path":"scale"
					}
				},
				{
					"sampler":15,
					"target":{
						"node":7,
						"path":"translation"
					}
				},
				{
					"sampler":16,
					"target":{
						"node":7,
						"path":"rotation"
					}
				},
				{
					"sampler":17,
					"target":{
						"node":7,
						"path":"scale"
					}
				},
				{
					"sampler":18,
					"target":{
						"node":6,
						"path":"translation"
					}
				},
				{
					"sampler":19,
					"target":{
						"node":6,
						"path":"rotation"
					}
				},
				{
					"sampler":20,
					"target":{
						"node":6,
						"path":"scale"
					}
				},
				{
					"sampler":21,
					"target":{
						"node":5,
						"path":"translation"
					}
				},
				{
					"sampler":22,
					"target":{
						"node":5,
						"path":"rotation"
					}
				},
				{
					"sampler":23,
					"target":{
						"node":5,
						"path":"scale"
					}
				},
				{
					"sampler":24,
					"target":{
						"node":4,
						"path":"translation"
					}
				},
				{
					"sampler":25,
					"target":{
						"node":4,
						"path":"rotation"
					}
				},
				{
					"sampler":26,
					"target":{
						"node":4,
						"path":"scale"
					}
				},
				{
					"sampler":27,
					"target":{
						"node":8,
						"path":"translation"
					}
				},
				{
					"sampler":28,
					"target":{
						"node":8,
						"path":"rotation"
					}
				},
				{
					"sampler":29,
					"target":{
						"node":8,
						"path":"scale"
					}
				},
				{
					"sampler":30,
					"target":{
						"node":9,
						"path":"translation"
					}
				},
				{
					"sampler":31,
					"target":{
						"node":9,
						"path":"rotation"
					}
				},
				{
					"sampler":32,
					"target":{
						"node":9,
						"path":"scale"
					}
				}
			],
			"name":"\u30a2\u30fc\u30de\u30c1\u30e5\u30a2\u30a2\u30af\u30b7\u30e7\u30f3",
			"samplers":[
				{
					"input":7,
					"interpolation":"STEP",
					"output":8
				},
				{
					"input":7,
					"interpolation":"STEP",
					"output":9
				},
				{
					"input":7,
					"interpolation":"STEP",
					"output":10
				},
				{
					"input":7,
					"interpolation":"STEP",
					"output":11
				},
				{
					"input":7,
					"interpolation":"STEP",
					"output":12
				},
				{
					"input":7,
					"interpolation":"STEP",
					"output":13
				},
				{
					"input":7,
					"interpolation":"STEP",
					"output":14
				},
				{
					"input":7,
					"interpolation":"STEP",
					"output":15
				},
				{
					"input":7,
					"interpolation":"STEP",
					"output":16
				},
				{
					"input":7,
					"interpolation":"STEP",
					"output":17
				},
				{
					"input":7,
					"interpolation":"STEP",
					"output":18
				},
				{
					"input":7,
					"interpolation":"STEP",
					"output":19
				},
				{
					"input":7,
					"interpolation":"STEP",
					"output":20
				},
				{
					"input":7,
					"interpolation":"STEP",
					"output":21
				},
				{
					"input":7,
					"interpolation":"STEP",
					"output":22
				},
				{
					"input":7,
					"interpolation":"STEP",
					"output":23
				},
				{
					"input":24,
					"interpolation":"LINEAR",
					"output":25
				},
				{
					"input":7,
					"interpolation":"STEP",
					"output":26
				},
				{
					"input":7,
					"interpolation":"STEP",
					"output":27
				},
				{
					"input":24,
					"interpolation":"LINEAR",
					"output":28
				},
				{
					"input":7,
					"interpolation":"STEP",
					"output":29
				},
				{
					"input":7,
					"interpolation":"STEP",
					"output":30
				},
				{
					"input":24,
					"interpolation":"LINEAR",
					"output":31
				},
				{
					"input":7,
					"interpolation":"STEP",
					"output":10
				},
				{
					"input":7,
					"interpolation":"STEP",
					"output":32
				},
				{
					"input":24,
					"interpolation":"LINEAR",
					"output":33
				},
				{
					"input":7,
					"interpolation":"STEP",
					"output":29
				},
				{
					"input":7,
					"interpolation":"STEP",
					"output":34
				},
				{
					"input":24,
					"interpolation":"LINEAR",
					"output":35
				},
				{
					"input":7,
					"interpolation":"STEP",
					"output":10
				},
				{
					"input":24,
					"interpolation":"LINEAR",
					"output":36
				},
				{
					"input":24,
					"interpolation":"LINEAR",
					"output":37
				},
				{
					"input":7,
					"interpolation":"STEP",
					"output":38
				}
			]
		}
	],
	"materials":[
		{
			"doubleSided":true,
			"name":"\u30de\u30c6\u30ea\u30a2\u30eb",
			"pbrMetallicRoughness":{
				"baseColorTexture":{
					"index":0
				},
				"metallicFactor":0,
				"roughnessFactor":0.5
			}
		}
	],
	"meshes":[
		{
			"name":"\u7acb\u65b9\u4f53.005",
			"primitives":[
				{
					"attributes":{
						"POSITION":0,
						"NORMAL":1,
						"TEXCOORD_0":2,
						"JOINTS_0":3,
						"WEIGHTS_0":4
					},
					"indices":5,
					"material":0
				}
			]
		}
	],
	"textures":[
		{
			"sampler":0,
			"source":0
		}
	],
	"images":[
		{
			"mimeType":"image/png",
			"name":"player",
			"uri":"player.png"
		}
	],
	"skins":[
		{
			"inverseBindMatrices":6,
			"joints":[
				10,
				0,
				1,
				2,
				3,
				7,
				6,
				5,
				4,
				8,
				9
			],
			"name":"\u30a2\u30fc\u30de\u30c1\u30e5\u30a2"
		}
	],
	"accessors":[
		{
			"bufferView":0,
			"componentType":5126,
			"count":1335,
			"max":[
				1.170468807220459,
				2.171776533126831,
				4.392026424407959
			],
			"min":[
				-2.236757755279541,
				-1.9736084938049316,
				-4.390737056732178
			],
			"type":"VEC3"
		},
		{
			"bufferView":1,
			"componentType":5126,
			"count":1335,
			"type":"VEC3"
		},
		{
			"bufferView":2,
			"componentType":5126,
			"count":1335,
			"type":"VEC2"
		},
		{
			"bufferView":3,
			"componentType":5121,
			"count":1335,
			"type":"VEC4"
		},
		{
			"bufferView":4,
			"componentType":5126,
			"count":1335,
			"type":"VEC4"
		},
		{
			"bufferView":5,
			"componentType":5123,
			"count":2280,
			"type":"SCALAR"
		},
		{
			"bufferView":6,
			"componentType":5126,
			"count":11,
			"type":"MAT4"
		},
		{
			"bufferView":7,
			"componentType":5126,
			"count":2,
			"max":[
				1.0833333333333333
			],
			"min":[
				0
			],
			"type":"SCALAR"
		},
		{
			"bufferView":8,
			"componentType":5126,
			"count":2,
			"type":"VEC3"
		},
		{
			"bufferView":9,
			"componentType":5126,
			"count":2,
			"type":"VEC4"
		},
		{
			"bufferView":10,
			"componentType":5126,
			"count":2,
			"type":"VEC3"
		},
		{
			"bufferView":11,
			"componentType":5126,
			"count":2,
			"type":"VEC3"
		},
		{
			"bufferView":12,
			"componentType":5126,
			"count":2,
			"type":"VEC4"
		},
		{
			"bufferView":13,
			"componentType":5126,
			"count":2,
			"type":"VEC3"
		},
		{
			"bufferView":14,
			"componentType":5126,
			"count":2,
			"type":"VEC3"
		},
		{
			"bufferView":15,
			"componentType":5126,
			"count":2,
			"type":"VEC4"
		},
		{
			"bufferView":16,
			"componentType":5126,
			"count":2,
			"type":"VEC3"
		},
		{
			"bufferView":17,
			"componentType":5126,
			"count":2,
			"type":"VEC3"
		},
		{
			"bufferView":18,
			"componentType":5126,
			"count":2,
			"type":"VEC4"
		},
		{
			"bufferView":19,
			"componentType":5126,
			"count":2,
			"type":"VEC3"
		},
		{
			"bufferView":20,
			"componentType":5126,
			"count":2,
			"type":"VEC3"
		},
		{
			"bufferView":21,
			"componentType":5126,
			"count":2,
			"type":"VEC4"
		},
		{
			"bufferView":22,
			"componentType":5126,
			"count":2,
			"type":"VEC3"
		},
		{
			"bufferView":23,
			"componentType":5126,
			"count":2,
			"type":"VEC3"
		},
		{
			"bufferView":24,
			"componentType":5126,
			"count":27,
			"max":[
				1.0833333333333333
			],
			"min":[
				0
			],
			"type":"SCALAR"
		},
		{
			"bufferView":25,
			"componentType":5126,
			"count":27,
			"type":"VEC4"
		},
		{
			"bufferView":26,
			"componentType":5126,
			"count":2,
			"type":"VEC3"
		},
		{
			"bufferView":27,
			"componentType":5126,
			"count":2,
			"type":"VEC3"
		},
		{
			"bufferView":28,
			"componentType":5126,
			"count":27,
			"type":"VEC4"
		},
		{
			"bufferView":29,
			"componentType":5126,
			"count":2,
			"type":"VEC3"
		},
		{
			"bufferView":30,
			"componentType":5126,
			"count":2,
			"type":"VEC3"
		},
		{
			"bufferView":31,
			"componentType":5126,
			"count":27,
			"type":"VEC4"
		},
		{
			"bufferView":32,
			"componentType":5126,
			"count":2,
			"type":"VEC3"
		},
		{
			"bufferView":33,
			"componentType":5126,
			"count":27,
			"type":"VEC4"
		},
		{
			"bufferView":34,
			"componentType":5126,
			"count":2,
			"type":"VEC3"
		},
		{
			"bufferView":35,
			"componentType":5126,
			"count":27,
			"type":"VEC4"
		},
		{
			"bufferView":36,
			"componentType":5126,
			"count":27,
			"type":"VEC3"
		},
		{
			"bufferView":37,
			"componentType":5126,
			"count":27,
			"type":"VEC4"
		},
		{
			"bufferView":38,
			"componentType":5126,
			"count":2,
			"type":"VEC3"
		}
	],
	"bufferViews":[
		{
			"buffer":0,
			"byteLength":16020,
			"byteOffset":0,
			"target":34962
		},
		{
			"buffer":0,
			"byteLength":16020,
			"byteOffset":16020,
			"target":34962
		},
		{
			"buffer":0,
			"byteLength":10680,
			"byteOffset":32040,
			"target":34962
		},
		{
			"buffer":0,
			"byteLength":5340,
			"byteOffset":42720,
			"target":34962
		},
		{
			"buffer":0,
			"byteLength":21360,
			"byteOffset":48060,
			"target":34962
		},
		{
			"buffer":0,
			"byteLength":4560,
			"byteOffset":69420,
			"target":34963
		},
		{
			"buffer":0,
			"byteLength":704,
			"byteOffset":73980
		},
		{
			"buffer":0,
			"byteLength":8,
			"byteOffset":74684
		},
		{
			"buffer":0,
			"byteLength":24,
			"byteOffset":74692
		},
		{
			"buffer":0,
			"byteLength":32,
			"byteOffset":74716
		},
		{
			"buffer":0,
			"byteLength":24,
			"byteOffset":74748
		},
		{
			"buffer":0,
			"byteLength":24,
			"byteOffset":74772
		},
		{
			"buffer":0,
			"byteLength":32,
			"byteOffset":74796
		},
		{
			"buffer":0,
			"byteLength":24,
			"byteOffset":74828
		},
		{
			"buffer":0,
			"byteLength":24,
			"byteOffset":74852
		},
		{
			"buffer":0,
			"byteLength":32,
			"byteOffset":74876
		},
		{
			"buffer":0,
			"byteLength":24,
			"byteOffset":74908
		},
		{
			"buffer":0,
			"byteLength":24,
			"byteOffset":74932
		},
		{
			"buffer":0,
			"byteLength":32,
			"byteOffset":74956
		},
		{
			"buffer":0,
			"byteLength":24,
			"byteOffset":74988
		},
		{
			"buffer":0,
			"byteLength":24,
			"byteOffset":75012
		},
		{
			"buffer":0,
			"byteLength":32,
			"byteOffset":75036
		},
		{
			"buffer":0,
			"byteLength":24,
			"byteOffset":75068
		},
		{
			"buffer":0,
			"byteLength":24,
			"byteOffset":75092
		},
		{
			"buffer":0,
			"byteLength":108,
			"byteOffset":75116
		},
		{
			"buffer":0,
			"byteLength":432,
			"byteOffset":75224
		},
		{
			"buffer":0,
			"byteLength":24,
			"byteOffset":75656
		},
		{
			"buffer":0,
			"byteLength":24,
			"byteOffset":75680
		},
		{
			"buffer":0,
			"byteLength":432,
			"byteOffset":75704
		},
		{
			"buffer":0,
			"byteLength":24,
			"byteOffset":76136
		},
		{
			"buffer":0,
			"byteLength":24,
			"byteOffset":76160
		},
		{
			"buffer":0,
			"byteLength":432,
			"byteOffset":76184
		},
		{
			"buffer":0,
			"byteLength":24,
			"byteOffset":76616
		},
		{
			"buffer":0,
			"byteLength":432,
			"byteOffset":76640
		},
		{
			"buffer":0,
			"byteLength":24,
			"byteOffset":77072
		},
		{
			"buffer":0,
			"byteLength":432,
			"byteOffset":77096
		},
		{
			"buffer":0,
			"byteLength":324,
			"byteOffset":77528
		},
		{
			"buffer":0,
			"byteLength":432,
			"byteOffset":77852
		},
		{
			"buffer":0,
			"byteLength":24,
			"byteOffset":78284
		}
	],
	"samplers":[
		{
			"magFilter":9729,
			"minFilter":9987
		}
	],
	"buffers":[
		{
			"byteLength":78308,
			"uri":"player.bin"
		}
	]
}
